<svg version="1.1" xmlns="http://www.w3.org/2000/svg" xmlns:xlink="http://www.w3.org/1999/xlink" x="0px" y="0px"
   viewBox="0 0 146.3 41.1" enable-background="new 0 0 146.3 41.1" xml:space="preserve">
<g>
  <path d="M0,33.3V0h25.1v6.5H7.3v6.8H23v6.5H7.3v7h18.1v6.5H0z"/>
  <path d="M47.9,33.3l-5.1-8l-5.1,8H30l9-13L30.3,7.8h7.8l4.8,7.4l4.8-7.4h7.6l-8.6,12.4l9,13.1H47.9z"/>
  <path d="M76,34c-2,5.2-4,7.1-8.4,7.1c-2.6,0-4.6-0.7-6.4-1.8l2.4-5.2c1,0.6,2.1,1,3.1,1c1.2,0,1.9-0.4,2.5-1.7
    l-10-25.6h7.7l5.8,17.4l5.6-17.4h7.5L76,34z"/>
  <path d="M100.3,41.1c-4.1,0-8-1-11.3-2.7l2.5-5.4c2.6,1.5,5.2,2.3,8.6,2.3c5,0,7.3-2.4,7.3-7v-1.2
    c-2.1,2.6-4.5,4.1-8.3,4.1c-6,0-11.3-4.3-11.3-11.9v-0.1c0-7.6,5.5-11.9,11.3-11.9c4,0,6.3,1.7,8.2,3.8V7.8h7.2v19.8
    C114.5,37.2,109.8,41.1,100.3,41.1z M107.4,19.2c0-3.5-2.7-5.9-6.2-5.9c-3.5,0-6.2,2.4-6.2,5.9v0.1c0,3.5,2.7,5.9,6.2,5.9
    C104.7,25.2,107.4,22.8,107.4,19.2L107.4,19.2z"/>
  <path d="M136.5,34c-2,5.2-4,7.1-8.4,7.1c-2.6,0-4.6-0.7-6.4-1.8l2.4-5.2c1,0.6,2.1,1,3.1,1c1.2,0,1.9-0.4,2.5-1.7
    l-10-25.6h7.7l5.8,17.4l5.6-17.4h7.5L136.5,34z"/>
</g>
</svg>
